{"title":"The Briefcase - S01E06","uid":15546783,"size":362364284,"categoryP":"video","categoryS":"tv_shows","magnet":"?xt=urn:btih:83c2a43cd2562294dbd1bde2cd8ce42c5185f535&amp;dn=The+Briefcase+-+S01E06&amp;tr=udp%3A%2F%2Ftracker.leechers-paradise.org%3A6969&amp;tr=udp%3A%2F%2Fzer0day.ch%3A1337&amp;tr=udp%3A%2F%2Fopen.demonii.com%3A1337&amp;tr=udp%3A%2F%2Ftracker.coppersurfer.tk%3A6969&amp;tr=udp%3A%2F%2Fexodus.desync.com%3A6969","seeders":2,"leechers":0,"uploader":"Bullrout","files":1,"time":1470981502,"description":"The Briefcase - S01E06\r\n\r\nWhat would you do with $100,000? Twelve deserving Australian families are about to face a life-changing decision. When given a chance to help themselves, will they instead help a stranger in need?\r\n\r\nComplete name                            : 60 Minutes AU - 7-8-2016.mkv\r\nFormat                                   : Matroska\r\nFormat version                           : Version 4 / Version 2\r\nFile size                                : 1.10 GiB\r\nDuration                                 : 47mn 19s\r\nOverall bit rate mode                    : Variable\r\nOverall bit rate                         : 3 334 Kbps\r\nEncoded date                             : UTC 2016-08-10 23:32:03\r\nWriting application                      : mkvmerge v9.3.1 ('Mask Machine') 64bit\r\nWriting library                          : libebml v1.3.4 + libmatroska v1.4.5\r\n\r\nVideo\r\nID                                       : 2\r\nFormat                                   : AVC\r\nFormat/Info                              : Advanced Video Codec\r\nFormat profile                           :   \r\nFormat settings, CABAC                   : Yes\r\nFormat settings, ReFrames                : 3 frames\r\nCodec ID                                 : V_MPEG4/ISO/AVC\r\nDuration                                 : 47mn 19s\r\nBit rate mode                            : Variable\r\nBit rate                                 : 2 949 Kbps\r\nMaximum bit rate                         : 3 000 Kbps\r\nWidth                                    : 1 280 pixels\r\nHeight                                   : 720 pixels\r\nDisplay aspect ratio                     : 16:9\r\nFrame rate mode                          : Constant\r\nFrame rate                               : 25.000 fps\r\nStandard                                 : PAL\r\nColor space                              : YUV\r\nChroma subsampling                       : 4:2:0\r\nBit depth                                : 8 bits\r\nScan type                                : Progressive\r\nBits/(Pixel*Frame)                       : 0.128\r\nStream size                              : 998 MiB (88%)\r\nWriting library                          : x264 core 112\r\nDefault                                  : Yes\r\nForced                                   : No\r\nColor range                              : Limited\r\nColor primaries                          : BT.709\r\nTransfer characteristics                 : BT.709\r\nMatrix coefficients                      : BT.709\r\n\r\nAudio\r\nID                                       : 1\r\nFormat                                   : AC-3\r\nFormat/Info                              : Audio Coding 3\r\nMode extension                           : CM (complete main)\r\nFormat settings, Endianness              : Big\r\nCodec ID                                 : A_AC3\r\nDuration                                 : 47mn 19s\r\nBit rate mode                            : Constant\r\nBit rate                                 : 384 Kbps\r\nChannel(s)                               : 6 channels\r\nChannel positions                        : Front: L C R, Side: L R, LFE\r\nSampling rate                            : 48.0 KHz\r\nFrame rate                               : 31.250 fps (1536 spf)\r\nCompression mode                         : Lossy\r\nStream size                              : 130 MiB (12%)\r\nDefault                                  : Yes\r\nForced                                   : No","torrent":{"xt":"urn:btih:83c2a43cd2562294dbd1bde2cd8ce42c5185f535","amp;dn":"The+Briefcase+-+S01E06","amp;tr":["udp%3A%2F%2Ftracker.leechers-paradise.org%3A6969","udp%3A%2F%2Fzer0day.ch%3A1337","udp%3A%2F%2Fopen.demonii.com%3A1337","udp%3A%2F%2Ftracker.coppersurfer.tk%3A6969","udp%3A%2F%2Fexodus.desync.com%3A6969"],"infoHash":"83c2a43cd2562294dbd1bde2cd8ce42c5185f535","infoHashBuffer":{"type":"Buffer","data":[131,194,164,60,210,86,34,148,219,209,189,226,205,140,228,44,81,133,245,53]},"announce":[],"urlList":[]}}